<svg width="current" height="current" viewBox="0 0 12 17" fill="none" xmlns="http://www.w3.org/2000/svg">
<path d="M6.08399 0.797279C5.81023 0.797273 5.5883 1.0192 5.58829 1.29296C5.58829 1.56672 5.81021 1.78865 6.08397 1.78866L6.08399 0.797279ZM8.02912 1.67528L8.21688 1.21653L8.21671 1.21646L8.02912 1.67528ZM10.3108 3.52992L9.90009 3.80745L9.9004 3.8079L10.3108 3.52992ZM11.168 6.31595H11.6637L11.6637 6.31515L11.168 6.31595ZM9.67836 9.86762L9.27825 9.575C9.27223 9.58325 9.26646 9.59167 9.26095 9.60027L9.67836 9.86762ZM8.20197 12.1727L7.78455 11.9053L7.7828 11.9081L8.20197 12.1727ZM6.08398 15.5281L5.66507 15.7931C5.75597 15.9368 5.91418 16.0239 6.08422 16.0238C6.25426 16.0237 6.41239 15.9365 6.50315 15.7927L6.08398 15.5281ZM3.966 12.1798L4.38492 11.9148L4.38362 11.9128L3.966 12.1798ZM2.48961 9.87067L2.90723 9.60365C2.90175 9.59508 2.89601 9.58667 2.89001 9.57845L2.48961 9.87067ZM1 6.319L0.50431 6.3185V6.319H1ZM1.85716 3.52992L2.26757 3.8079L2.2676 3.80786L1.85716 3.52992ZM4.13885 1.67833L4.32633 2.1372L4.32717 2.13686L4.13885 1.67833ZM6.08471 1.78866C6.35848 1.78825 6.58008 1.566 6.57967 1.29224C6.57927 1.01848 6.35702 0.796877 6.08325 0.79728L6.08471 1.78866ZM6.08438 7.49489C5.81062 7.49489 5.58869 7.71682 5.58869 7.99058C5.58869 8.26434 5.81062 8.48627 6.08438 8.48627V7.49489ZM6.08438 4.14556C5.81062 4.14556 5.58869 4.36749 5.58869 4.64125C5.58869 4.91501 5.81062 5.13694 6.08438 5.13694V4.14556ZM6.09668 8.49217C6.37036 8.48542 6.58675 8.25809 6.58 7.98441C6.57326 7.71073 6.34593 7.49434 6.07225 7.50109L6.09668 8.49217ZM4.59983 7.17169L5.02706 6.92032L4.59983 7.17169ZM4.59983 5.47325L4.1726 5.22189L4.59983 5.47325ZM6.07225 5.14385C6.34593 5.1506 6.57326 4.93421 6.58 4.66053C6.58675 4.38685 6.37036 4.15952 6.09668 4.15277L6.07225 5.14385ZM6.08397 1.78866C6.68669 1.78867 7.28364 1.906 7.84152 2.1341L8.21671 1.21646C7.53974 0.939671 6.81537 0.797295 6.08399 0.797279L6.08397 1.78866ZM7.84136 2.13404C8.67776 2.47636 9.3941 3.05863 9.90009 3.80745L10.7215 3.25239C10.1059 2.34139 9.23444 1.633 8.21688 1.21653L7.84136 2.13404ZM9.9004 3.8079C10.402 4.54853 10.6708 5.42221 10.6723 6.31674L11.6637 6.31515C11.6619 5.22296 11.3337 4.15623 10.7212 3.25194L9.9004 3.8079ZM10.6723 6.31595C10.6723 6.92038 10.5778 7.37455 10.3696 7.8439C10.1541 8.3298 9.81062 8.84706 9.27825 9.575L10.0785 10.1602C10.6117 9.43111 11.013 8.83853 11.2759 8.24586C11.5461 7.63665 11.6637 7.04352 11.6637 6.31595H10.6723ZM9.26095 9.60027L7.78456 11.9053L8.61938 12.44L10.0958 10.135L9.26095 9.60027ZM7.7828 11.9081L5.66481 15.2635L6.50315 15.7927L8.62114 12.4373L7.7828 11.9081ZM6.5029 15.2631L4.38491 11.9148L3.54708 12.4448L5.66507 15.7931L6.5029 15.2631ZM4.38362 11.9128L2.90723 9.60365L2.07198 10.1377L3.54837 12.4468L4.38362 11.9128ZM2.89001 9.57845C2.35741 8.84868 2.01385 8.33139 1.79827 7.84569C1.59011 7.37673 1.49569 6.92336 1.49569 6.319H0.50431C0.50431 7.04663 0.62189 7.63904 0.892139 8.24789C1.15496 8.83999 1.5562 9.43254 2.08921 10.1629L2.89001 9.57845ZM1.49569 6.31949C1.49658 5.42402 1.7654 4.54931 2.26757 3.8079L1.44675 3.25194C0.833621 4.15718 0.505396 5.22517 0.504311 6.3185L1.49569 6.31949ZM2.2676 3.80786C2.77399 3.06006 3.49029 2.47878 4.32633 2.1372L3.95137 1.21947C2.93425 1.63503 2.0628 2.34221 1.44672 3.25198L2.2676 3.80786ZM4.32717 2.13686C4.88486 1.90781 5.48182 1.78955 6.08471 1.78866L6.08325 0.79728C5.35166 0.798357 4.62728 0.941871 3.95053 1.21981L4.32717 2.13686ZM6.08438 8.48627C6.85977 8.48627 7.57627 8.0726 7.96396 7.40109L7.1054 6.9054C6.8948 7.27018 6.50559 7.49489 6.08438 7.49489V8.48627ZM7.96396 7.40109C8.35166 6.72958 8.35166 5.90225 7.96396 5.23074L7.1054 5.72643C7.31601 6.0912 7.31601 6.54063 7.1054 6.9054L7.96396 7.40109ZM7.96396 5.23074C7.57627 4.55923 6.85977 4.14556 6.08438 4.14556V5.13694C6.50559 5.13694 6.8948 5.36165 7.1054 5.72643L7.96396 5.23074ZM6.07225 7.50109C5.64425 7.51163 5.24416 7.28933 5.02706 6.92032L4.1726 7.42305C4.57226 8.10234 5.30877 8.51158 6.09668 8.49217L6.07225 7.50109ZM5.02706 6.92032C4.80995 6.55132 4.80995 6.09362 5.02706 5.72462L4.1726 5.22189C3.77293 5.90118 3.77293 6.74375 4.1726 7.42305L5.02706 6.92032ZM5.02706 5.72462C5.24416 5.35561 5.64425 5.1333 6.07225 5.14385L6.09668 4.15277C5.30877 4.13336 4.57226 4.5426 4.1726 5.22189L5.02706 5.72462Z" fill="#263038" />
</svg>
